<svg id="Layer_1" data-name="Layer 1" xmlns="http://www.w3.org/2000/svg" viewBox="0 0 634.47 906.15">
  <title>bottle_logo</title>
  <path d="M317.23,0C142,0,0,202.85,0,453.08S142,906.15,317.23,906.15,634.47,703.31,634.47,453.08,492.44,0,317.23,0ZM107.87,254C156,145.72,238.18,91.46,319.53,91.76c81.74.3,156.59,55,205.83,162.22,7.88,17.16,8,21-8.6,35-22.81,24.1-29.24,11.47-39-4.87-37.71-63-95.11-56.17-158.2-56.17-61.63,0-127.95-5.92-159.6,52.45-18.86,34.77-21.24,24.62-48.8,5C94.84,273.83,104.83,260.83,107.87,254ZM524,657.53C464.44,780,380,814.8,321.36,814c-79.31-1.11-151.84-39-212.45-159-3.38-6.7-13-21.65,2.67-33.93,29.19-22.82,29.89-29.19,51.55,7.33C199.64,690,260.93,689.8,319.53,690c61.78.19,129.13-6.69,157.38-66.45,9.28-19.63,15.56-31.31,45.78-4.88C539.36,631.53,532.21,640.55,524,657.53Z" style="fill: #fff"/>
  <g>
    <path d="M317.23,877.18c-40.53,0-79.83-11.33-116.8-33.66-35.55-21.47-67.44-52.16-94.79-91.23-56-80-86.85-186.25-86.85-299.21s30.85-219.23,86.85-299.22C133,114.8,164.88,84.1,200.43,62.63,237.4,40.3,276.7,29,317.23,29S397.07,40.3,434,62.63c35.54,21.47,67.43,52.17,94.79,91.23,56,80,86.85,186.26,86.85,299.22S584.83,672.3,528.83,752.29c-27.36,39.07-59.25,69.76-94.79,91.23C397.07,865.85,357.77,877.18,317.23,877.18Z" style="fill: #63aeaa"/>
    <path d="M317.23,34c162.07,0,293.45,187.64,293.45,419.1S479.3,872.18,317.23,872.18,23.79,684.54,23.79,453.08,155.17,34,317.23,34m0-10c-41.46,0-81.63,11.56-119.39,34.37-36.14,21.84-68.54,53-96.29,92.64C74,190.37,52.35,236.16,37.26,287.11c-15.57,52.59-23.47,108.43-23.47,166s7.9,113.38,23.47,166C52.35,670,74,715.79,101.55,755.16,129.3,794.8,161.7,826,197.84,847.8c37.76,22.81,77.93,34.38,119.39,34.38s81.64-11.57,119.4-34.38c36.14-21.83,68.54-53,96.29-92.64,27.57-39.37,49.2-85.17,64.29-136.11,15.57-52.59,23.47-108.43,23.47-166s-7.9-113.38-23.47-166c-15.09-51-36.72-96.74-64.29-136.12-27.75-39.63-60.15-70.8-96.29-92.64C398.87,35.54,358.7,24,317.23,24Z" style="fill: #f7ea46"/>
  </g>
  <path d="M583.34,277C536.82,133.57,435.16,34.11,317.23,34.11S97.65,133.57,51.13,277Z" style="fill: #fff"/>
  <g id="Michelob">
    <g>
      <path d="M164.53,455.22h0Z" style="fill: #fff"/>
      <path d="M168.73,360.5c-5.42-15.58-13.66-30.78-36.53-30.38-9.67.16-17.54,3.23-23.43,8a4.17,4.17,0,0,1-5.25,0c-5.91-4.77-13.78-7.84-23.45-8-22.92-.37-31,14.78-36.5,30.44s2.74,83.89,4.32,94.76c0,0-.11-.85,1.53,8.1,1.46,9.09,13,7.61,18.63,7.27s4.77-3.16,3.93-10.89-8.75-56-8.83-87.56,32.36-23.92,32.62-8a15.54,15.54,0,0,0,1,5.2c1.59,5.35,5.93,7.66,10.15,7.2a9.3,9.3,0,0,0,8.58-6.7,14.92,14.92,0,0,0,1.11-5.6c.31-15.9,32.64-23.63,32.62,8s-7.81,79.85-8.72,87.56-1.72,10.66,3.92,10.91,17.17,1.77,18.63-7.27c1.16-6.46,1.44-8,1.5-8.29a1.55,1.55,0,0,0,0-.21C166.11,443.76,174.2,376,168.73,360.5Z" style="fill: #fff"/>
    </g>
    <path id="I" d="M217.31,402.1s-8.48,57.11-9.33,61.32-.12,9-9.54,5.3-9-13.48-8.5-17.74,7.49-52.51,9-54.44,4.55-6,13.84-5C219,391.6,217.31,402.1,217.31,402.1Z" style="fill: #fff"/>
    <g id="I_dot" data-name="I dot">
      <path id="I_dot-2" data-name="I dot" d="M226.46,381.11c11.3-9.45,21.94-22,25.28-40.11s-13.63-30.94-27.11-20.42-13,13.77-13,13.77-19.08-22-32.27-5,11.44,40.86,19.86,49.24,13.9,11.18,19.5,7.57S226.46,381.11,226.46,381.11Z" style="fill: #fbe947"/>
      <path d="M221.15,334.89c4.92-3.55,13.77-9.72,17-1s-7.48,29.7-15,37.35-11,11.59-18.45,3.53-18-27.47-14.23-35,11.54-2.65,16.13,1.52a6.12,6.12,0,0,1,1.75,3.12A21.24,21.24,0,0,0,207,360.26c2.6,9.19,8.57,8.48,13.43,3.17s2-14.62-.71-17.82-3.58-4.17-3.58-4.17A16.87,16.87,0,0,1,221.15,334.89Z" style="fill: #65adaa"/>
      <path d="M213.85,349.58s3.14,2.26,3.68,5.61-.72,9.66-4.26,1.06C212,351.54,213.85,349.58,213.85,349.58Z" style="fill: #65adaa"/>
      <path d="M254.65,351.41c5.51-1,9.12-1.61,15.5.25a.26.26,0,0,1,.2.29l-1.66,6.16c0,.16-.2.22-.37.19-1.25-.54-6.84-2.61-15-.67-.17.05-.31-.13-.28-.3l1.5-5.69C254.48,351.47,254.57,351.4,254.65,351.41Z" style="fill: #fff"/>
      <path d="M257.76,321.34c5.78-4.75,11.07-9.57,12.75-6s3.23,5.36.26,6.64a85.64,85.64,0,0,0-11.31,6.44C256.63,330.35,255.16,323.43,257.76,321.34Z" style="fill: #fff"/>
      <path d="M235.46,300.61c1.21-4.4,1.24-4.56,1.65-6.08s1.23-4,4-1.19,3.21,2.36,1.14,9.46-3.86,8.4-7.59,1.45C234.79,304.26,234.83,302.93,235.46,300.61Z" style="fill: #fff"/>
      <path d="M217,317.76a39.17,39.17,0,0,0-4.8-10.05c-1.59-2.09-2.2-3.45-4.22-2.35s-2.24,1.47-1,3.34,3.76,7.21,6.62,8.17A18,18,0,0,0,217,317.76Z" style="fill: #fff"/>
    </g>
    <path id="C" d="M271.56,448.38c-7.92,4.56-26.3,13.88-22.7-13s14.3-24.42,17.25-23,5.43,9.81,10,10.89,10.46-3.24,7.45-12.5-17.7-23.33-33.25-9.3-17.76,35-17.38,50.16,17.76,21.41,28,18.72,22.21-7.19,23.31-18.62C285.35,440.08,271.56,448.38,271.56,448.38Z" style="fill: #fff"/>
    <path id="H" d="M313.55,467.19c-.3,2.88-2.37,6.39-7.77,4.68s-10.54-6.13-10.49-13.14,8.7-110.71,9-114.25,1.18-12.5,6.38-15.17,11.05-2.73,11.09,3.71c0,5.73-3,60-3.64,71.74a.81.81,0,0,0,1.39.62c3.48-3.44,12.37-10.77,21.17-5.9,12.34,6.84,16.62,13.47,13.89,45.36-1.47,16.8-1.41,22.16-4.39,25.1-2.19,2.15-6.53,1.12-11.82-1.33-7.89-3.36-4-17.36-2.9-32.21s-1.18-18-6.54-17.93-10.69,3.12-11.56,12.08S313.55,467.19,313.55,467.19Z" style="fill: #fff"/>
    <path d="M401.42,453.32s-2.47,2.36-8.81,3.34c-6.17.92-8.39-7-7.18-9.85s18.72-5.74,26.8-7.7,11.17-7.05,7.44-23.27-22.88-21.24-36.22-13.62S364.4,438.9,368,456.86s26.53,18.83,34.86,14.32,16-8.85,16.38-19.74S408.3,449.5,401.42,453.32Zm4.06-28.9a2.71,2.71,0,0,1-1.85,2.51c-8,3.05-13.29,3.27-15.83,3.27-1.22,0-1.88-.4-1.72-1.92C387.92,409.69,404.35,409.43,405.48,424.42Z" style="fill: #fff"/>
    <path id="L" d="M463.92,348.81c1.12-6.92-2.31-16.75-12.81-8.09-5.22,4.34-7.11,4.7-9.06,13.66s-3.1,26.83-4.72,53.39c-3.24,53.19-3.36,61.75,5.76,63.73s12.15,3.38,13.41-4.43S462.88,355.74,463.92,348.81Z" style="fill: #fff"/>
    <path d="M503.46,398.8c-16.83-.8-28.78,7-31.64,39.67-2.28,25.44,7.34,33.68,22.69,35.32,16.58,1.85,28.1-17.76,29.3-36.53C524.88,419.22,520.2,399.59,503.46,398.8Zm6.08,36.82c-.52,13.54-7,21.51-11.23,21.41a12,12,0,0,1-8.45-3c-2.83-2.63-3-9.68-2.29-16.33.53-4.84,1.13-10.59,2.34-14,2.5-7.2,6.37-9.41,9.87-9.35C504.86,414.4,510.05,422.09,509.54,435.62Z" style="fill: #fff"/>
    <path d="M588.53,432.18c-.58-33.66-19.4-32.59-28.14-30.26a2.09,2.09,0,0,1-2.63-2.27c3.24-25.58,6.62-50,7.12-53.12,1.07-6.59-4.58-15.22-11.28-10.38-5.35,4.15-7.25,4.51-9.51,13.33s-4.84,26.87-7.37,53.36c-3.34,35-3.8,50.34-1.44,57.54v0c3.44,11.25,11.44,13.47,20.78,13.56S589.28,476.16,588.53,432.18Zm-15.74,5.39c-.68,13.51-7.29,21.38-11.46,21.29a11.43,11.43,0,0,1-8.35-3.1c-2.83-2.63-2.94-9.75-2.11-16.38.61-4.83,1.29-10.57,2.5-14,2.58-7.18,6.52-9.3,9.94-9.25C568.38,416.31,573.49,424,572.79,437.57Z" style="fill: #fff"/>
  </g>
  <text transform="matrix(1, 0, 0, 1, 37.82, 552.42)" style="isolation: isolate;font-size: 98.85746765136719px;fill: #fff;font-family: OmnesSemiCondSemiBold, Omnes SemiCond">u<tspan x="52.49" y="0" style="letter-spacing: -0.000987848994315701em">l</tspan><tspan x="76.42" y="0">t</tspan><tspan x="112.2" y="0" style="letter-spacing: -0.008989425848272878em">r</tspan><tspan x="148.78" y="0" style="letter-spacing: 0.000004939244971578504em">a </tspan><tspan x="213.73" y="0" style="letter-spacing: -0.0029931824527765732em">s</tspan><tspan x="256.24" y="0">t</tspan><tspan x="292.02" y="0" style="letter-spacing: -0.022987246097726358em">r</tspan><tspan x="327.22" y="0">ength</tspan><tspan x="162.62" y="98.86">wipes</tspan></text>
  <line id="seperator" x1="47.13" y1="276.96" x2="587.34" y2="276.96" style="fill: #63aeaa;stroke: #f7ea46;stroke-miterlimit: 10;stroke-width: 10px"/>
  <text transform="matrix(1, 0, 0, 1, 221.9, 137.11)" style="isolation: isolate;font-size: 86px;fill: #63aeaa;font-family: OmnesSemiCondSemiBold, Omnes SemiCond">100%<tspan style="font-size: 98.85746765136719px"><tspan x="-79.34" y="98.86" style="letter-spacing: -0.022997124587669514em">r</tspan><tspan x="-44.15" y="98.86">e</tspan><tspan x="5.18" y="98.86" style="letter-spacing: -0.0019954549685177155em">c</tspan><tspan x="51.05" y="98.86" style="letter-spacing: -0.005996243395496304em">y</tspan><tspan x="97.71" y="98.86">cled</tspan></tspan></text>
</svg>
