<svg id="Layer_1" data-name="Layer 1" xmlns="http://www.w3.org/2000/svg" viewBox="0 0 60 60">
  <title>instagramIcon</title>
  <g>
    <path d="M60,45A15,15,0,0,1,45,60H15A15,15,0,0,1,0,45V15A15,15,0,0,1,15,0H45A15,15,0,0,1,60,15Z" style="fill: #2d80a6"/>
    <path d="M41.51,11.26h-23a7.23,7.23,0,0,0-7.23,7.23v23a7.23,7.23,0,0,0,7.23,7.23h23a7.27,7.27,0,0,0,7.27-7.23v-23A7.29,7.29,0,0,0,41.51,11.26Zm2.07,4.33h.83V22l-6.33,0,0-6.37ZM24.63,26.18a6.58,6.58,0,0,1,10.7,0A6.5,6.5,0,0,1,36.57,30a6.59,6.59,0,0,1-13.18,0A6.41,6.41,0,0,1,24.63,26.18ZM45.08,41.51a3.57,3.57,0,0,1-3.61,3.57h-23a3.57,3.57,0,0,1-3.58-3.57V26.18h5.61A10.07,10.07,0,0,0,19.74,30a10.25,10.25,0,0,0,20.49,0,9.93,9.93,0,0,0-.76-3.84h5.61Z" style="fill: #fff"/>
  </g>
</svg>
