<svg id="Layer_1" data-name="Layer 1" xmlns="http://www.w3.org/2000/svg" viewBox="0 0 60 60">
  <title>twitterIcon</title>
  <g>
    <path d="M60,45A15,15,0,0,1,45,60H15A15,15,0,0,1,0,45V15A15,15,0,0,1,15,0H45A15,15,0,0,1,60,15V45Z" style="fill: #00abe3"/>
    <path d="M47.68,15.57a15.82,15.82,0,0,1-4.89,1.83A7.8,7.8,0,0,0,37.19,15a7.63,7.63,0,0,0-7.69,7.58,8.8,8.8,0,0,0,.18,1.72,22,22,0,0,1-15.87-7.92,7.41,7.41,0,0,0-1,3.81,7.55,7.55,0,0,0,3.43,6.31,7.66,7.66,0,0,1-3.47-.93v.11a7.63,7.63,0,0,0,6.16,7.43,7.29,7.29,0,0,1-2,.26,6.58,6.58,0,0,1-1.46-.15,7.66,7.66,0,0,0,7.17,5.26A15.69,15.69,0,0,1,13,41.74a13.73,13.73,0,0,1-1.83-.11A21.89,21.89,0,0,0,23,45,21.55,21.55,0,0,0,44.88,23.48a7.63,7.63,0,0,0,0-1,16.11,16.11,0,0,0,3.85-3.92,16.09,16.09,0,0,1-4.41,1.2A7.73,7.73,0,0,0,47.68,15.57Z" style="fill: #fff"/>
  </g>
</svg>
