<svg id="Layer_1" data-name="Layer 1" xmlns="http://www.w3.org/2000/svg" viewBox="0 0 60 60">
  <title>youtubeIcon</title>
  <g>
    <path d="M60,45A15,15,0,0,1,45,60H15A15,15,0,0,1,0,45V15A15,15,0,0,1,15,0H45A15,15,0,0,1,60,15Z" style="fill: #ff312e"/>
    <g id="Lozenge">
      <path d="M48.38,22.18s-.37-2.71-1.5-3.87a5.27,5.27,0,0,0-3.76-1.66C37.86,16.28,30,16.28,30,16.28h0s-7.86,0-13.12.37a5.33,5.33,0,0,0-3.76,1.66c-1.13,1.2-1.5,3.87-1.5,3.87a60.67,60.67,0,0,0-.38,6.32v3a60.6,60.6,0,0,0,.38,6.31s.37,2.71,1.5,3.87a6.18,6.18,0,0,0,4.14,1.66c3,.3,12.74.37,12.74.37s7.86,0,13.12-.41a5.26,5.26,0,0,0,3.76-1.65c1.13-1.21,1.5-3.88,1.5-3.88a60.35,60.35,0,0,0,.38-6.31v-3A61.44,61.44,0,0,0,48.38,22.18ZM26.13,35.08v-11l10.11,5.52Z" style="fill: #fff"/>
    </g>
  </g>
</svg>
